# xmcd
#
# Track frame offsets:
#	150
#	9332
#	26775
#	49516
#	68743
#	86895
#	106480
#	126890
#	148333
#	169472
#	190314
#	214633
#
# Disc length: 3135 seconds
# Revision: 0
# Processed by: cddbd v1.5.2PL0 Copyright (c) Steve Scherf et al.
# Submitted via: dBpowerAMP V12.0
#
DISCID=af0c3d0c
DTITLE=Clouseau - Clouseau in 't lang [CD 1)
DYEAR=2005
DGENRE=Nederlandstalig
TTITLE0=Intro
TTITLE1=En Dans
TTITLE2=Shaken en Grooven
TTITLE3=Keer Op Keer
TTITLE4=Ik Denk Aan Jou
TTITLE5=De Perfectie
TTITLE6=Ik Zie De Hemel
TTITLE7=Weg Van Jou
TTITLE8=Als Je Lacht
TTITLE9=Dansen
TTITLE10=Zij Is Van Mij
TTITLE11=Daar Gaat Ze
EXTD=
EXTT0=
EXTT1=
EXTT2=
EXTT3=
EXTT4=
EXTT5=
EXTT6=
EXTT7=
EXTT8=
EXTT9=
EXTT10=
EXTT11=
PLAYORDER=
